<?xml version="1.0" standalone="no"?>
<!DOCTYPE svg PUBLIC "-//W3C//DTD SVG 20010904//EN"
 "http://www.w3.org/TR/2001/REC-SVG-20010904/DTD/svg10.dtd">
<svg version="1.0" xmlns="http://www.w3.org/2000/svg"
 width="512.000000pt" height="512.000000pt" viewBox="0 0 512.000000 512.000000"
 preserveAspectRatio="xMidYMid meet">
<metadata>
Created by potrace 1.14, written by Peter Selinger 2001-2017
</metadata>
<g transform="translate(0.000000,512.000000) scale(0.100000,-0.100000)"
fill="#000000" stroke="none">
<path d="M0 2560 l0 -2560 2560 0 2560 0 0 2560 0 2560 -2560 0 -2560 0 0
-2560z m1490 1280 c369 -64 634 -209 809 -440 158 -210 235 -448 248 -766 13
-334 -56 -626 -199 -845 -104 -159 -236 -278 -406 -367 -289 -150 -628 -201
-1050 -157 -381 40 -564 113 -634 253 l-23 47 -3 1000 c-2 550 0 1019 3 1043
8 51 58 113 116 143 203 103 788 149 1139 89z m3353 -97 c68 -152 58 -363 -21
-447 -15 -16 -47 -38 -72 -50 -41 -19 -66 -21 -307 -24 l-263 -4 0 -948 c0
-837 -2 -949 -15 -954 -36 -13 -200 -28 -325 -29 -226 0 -318 46 -361 182 -18
60 -19 99 -19 907 l0 844 -310 0 -309 0 -15 28 c-8 15 -24 60 -36 100 -30 98
-26 264 8 329 26 50 77 94 129 110 28 8 286 12 964 12 l926 1 26 -57z"/>
<path d="M1003 3283 l-53 -4 0 -714 0 -714 38 -8 c20 -4 102 -8 182 -8 135 1
151 3 230 31 260 92 391 292 407 620 16 326 -68 558 -249 687 -141 101 -282
129 -555 110z"/>
</g>
</svg>
